<svg id="visual" viewBox="0 0 900 600" width="900" height="600" xmlns="http://www.w3.org/2000/svg" xmlns:xlink="http://www.w3.org/1999/xlink" version="1.1"><rect x="0" y="0" width="900" height="600" fill="#001220"></rect><defs><linearGradient id="grad1_0" x1="33.3%" y1="0%" x2="100%" y2="100%"><stop offset="20%" stop-color="#001220" stop-opacity="1"></stop><stop offset="80%" stop-color="#001220" stop-opacity="1"></stop></linearGradient></defs><defs><linearGradient id="grad2_0" x1="0%" y1="0%" x2="66.7%" y2="100%"><stop offset="20%" stop-color="#001220" stop-opacity="1"></stop><stop offset="80%" stop-color="#001220" stop-opacity="1"></stop></linearGradient></defs><g transform="translate(900, 0)"><path d="M0 459.7C-59.5 448.4 -119 437.1 -171.1 413C-223.1 388.9 -267.6 351.9 -311.8 311.8C-356.1 271.7 -400.1 228.4 -424.7 175.9C-449.3 123.4 -454.5 61.7 -459.7 0L0 0Z" fill="#3e1a68"></path></g><g transform="translate(0, 600)"><path d="M0 -459.7C63 -451.2 125.9 -442.8 170.3 -411.1C214.7 -379.5 240.5 -324.6 285 -285C329.4 -245.3 392.5 -220.9 424.7 -175.9C456.9 -131 458.3 -65.5 459.7 0L0 0Z" fill="#3e1a68"></path></g></svg>